<svg width="80" height="80" viewBox="0 0 80 80" fill="none" xmlns="http://www.w3.org/2000/svg">
<path fill-rule="evenodd" clip-rule="evenodd" d="M40 0C17.9091 0 0 17.9091 0 40C0 62.0909 17.9091 80 40 80C62.0909 80 80 62.0909 80 40C80 17.9091 62.0909 0 40 0ZM28.0255 48.0255C27.3396 48.6878 26.4211 49.0544 25.4676 49.0461C24.5142 49.0378 23.6021 48.6554 22.9279 47.9812C22.2537 47.3069 21.8713 46.3949 21.863 45.4415C21.8547 44.488 22.2212 43.5695 22.8836 42.8836L37.4291 28.3382C38.111 27.6565 39.0358 27.2735 40 27.2735C40.9642 27.2735 41.889 27.6565 42.5709 28.3382L57.1164 42.8836C57.7788 43.5695 58.1453 44.488 58.137 45.4415C58.1287 46.3949 57.7463 47.3069 57.0721 47.9812C56.3979 48.6554 55.4858 49.0378 54.5324 49.0461C53.5789 49.0544 52.6604 48.6878 51.9745 48.0255L40 36.0509L28.0255 48.0255Z" fill="#735DFE"/>
</svg>
