<svg width="65" height="60" viewBox="0 0 65 60" fill="none" xmlns="http://www.w3.org/2000/svg">
<path d="M17.4695 45.1786L21.5318 40.1376L8.45438 29.749L21.5318 19.3604L17.4695 14.3194L1.22022 27.2285C0.839483 27.5308 0.532121 27.9144 0.320897 28.3507C0.109673 28.787 0 29.2649 0 29.749C0 30.2331 0.109673 30.711 0.320897 31.1473C0.532121 31.5836 0.839483 31.9671 1.22022 32.2695L17.4695 45.1786ZM47.5305 14.3194L43.4682 19.3604L56.5456 29.749L43.4682 40.1376L47.5305 45.1786L63.7798 32.2695C64.1605 31.9671 64.4679 31.5836 64.6791 31.1473C64.8903 30.711 65 30.2331 65 29.749C65 29.2649 64.8903 28.787 64.6791 28.3507C64.4679 27.9144 64.1605 27.5308 63.7798 27.2285L47.5305 14.3194ZM42.1715 1.40064L29.1722 59.4915L22.8252 58.0909L35.8246 0L42.1715 1.40064Z" fill="#735DFE"/>
</svg>
