<svg width="60" height="60" viewBox="0 0 60 60" fill="none" xmlns="http://www.w3.org/2000/svg">
<path d="M51.4287 0H60.0001V8.57143H51.4287V0Z" fill="#735DFE"/>
<path d="M51.4287 12.8572H60.0001V21.4286H51.4287V12.8572Z" fill="#735DFE"/>
<path d="M38.5713 0H47.1427V8.57143H38.5713V0Z" fill="#735DFE"/>
<path d="M38.5713 12.8572H47.1427V21.4286H38.5713V12.8572Z" fill="#735DFE"/>
<path d="M55.7143 29.9999V42.8571H4.28571V8.57136H30V4.28564H4.28571C3.14907 4.28564 2.05898 4.73717 1.25526 5.5409C0.451529 6.34463 0 7.43472 0 8.57136V42.8571C0 43.9937 0.451529 45.0838 1.25526 45.8875C2.05898 46.6913 3.14907 47.1428 4.28571 47.1428H21.4286V55.7142H12.8571V59.9999H47.1429V55.7142H38.5714V47.1428H55.7143C56.8509 47.1428 57.941 46.6913 58.7447 45.8875C59.5485 45.0838 60 43.9937 60 42.8571V29.9999H55.7143ZM34.2857 55.7142H25.7143V47.1428H34.2857V55.7142Z" fill="#735DFE"/>
</svg>
