<svg width="24" height="25" viewBox="0 0 24 25" fill="none" xmlns="http://www.w3.org/2000/svg">
<path fill-rule="evenodd" clip-rule="evenodd" d="M7.05273 0.274393C8.33236 0.215483 8.74036 0.202393 12 0.202393C15.2596 0.202393 15.6676 0.216574 16.9462 0.274393C18.2247 0.332211 19.0975 0.536211 19.8611 0.831847C20.6607 1.13403 21.3862 1.60639 21.9862 2.2173C22.5971 2.81621 23.0684 3.54057 23.3695 4.3413C23.6662 5.10494 23.8691 5.97767 23.928 7.25403C23.9869 8.53585 24 8.94385 24 12.2024C24 15.462 23.9858 15.87 23.928 17.1497C23.8702 18.426 23.6662 19.2988 23.3695 20.0624C23.0684 20.8632 22.5963 21.5888 21.9862 22.1886C21.3862 22.7995 20.6607 23.2708 19.8611 23.5718C19.0975 23.8686 18.2247 24.0715 16.9484 24.1304C15.6676 24.1893 15.2596 24.2024 12 24.2024C8.74036 24.2024 8.33236 24.1882 7.05273 24.1304C5.77636 24.0726 4.90364 23.8686 4.14 23.5718C3.33919 23.2707 2.61362 22.7987 2.01382 22.1886C1.40332 21.5893 0.930889 20.8641 0.629455 20.0635C0.333818 19.2998 0.130909 18.4271 0.072 17.1508C0.0130909 15.8689 0 15.4609 0 12.2024C0 8.94276 0.0141818 8.53476 0.072 7.25621C0.129818 5.97767 0.333818 5.10494 0.629455 4.3413C0.931334 3.54066 1.40413 2.81546 2.01491 2.21621C2.61386 1.60585 3.3387 1.13342 4.13891 0.831847C4.90255 0.536211 5.77527 0.333302 7.05164 0.274393H7.05273ZM16.8491 2.43439C15.5836 2.37657 15.204 2.36457 12 2.36457C8.796 2.36457 8.41636 2.37657 7.15091 2.43439C5.98036 2.48785 5.34545 2.68312 4.92218 2.84785C4.36255 3.06603 3.96218 3.32457 3.54218 3.74457C3.14405 4.1319 2.83765 4.60343 2.64545 5.12457C2.48073 5.54785 2.28545 6.18276 2.232 7.3533C2.17418 8.61876 2.16218 8.99839 2.16218 12.2024C2.16218 15.4064 2.17418 15.786 2.232 17.0515C2.28545 18.222 2.48073 18.8569 2.64545 19.2802C2.83745 19.8006 3.144 20.2729 3.54218 20.6602C3.92945 21.0584 4.40182 21.3649 4.92218 21.5569C5.34545 21.7217 5.98036 21.9169 7.15091 21.9704C8.41636 22.0282 8.79491 22.0402 12 22.0402C15.2051 22.0402 15.5836 22.0282 16.8491 21.9704C18.0196 21.9169 18.6545 21.7217 19.0778 21.5569C19.6375 21.3388 20.0378 21.0802 20.4578 20.6602C20.856 20.2729 21.1625 19.8006 21.3545 19.2802C21.5193 18.8569 21.7145 18.222 21.768 17.0515C21.8258 15.786 21.8378 15.4064 21.8378 12.2024C21.8378 8.99839 21.8258 8.61876 21.768 7.3533C21.7145 6.18276 21.5193 5.54785 21.3545 5.12457C21.1364 4.56494 20.8778 4.16457 20.4578 3.74457C20.0705 3.34647 19.5989 3.04008 19.0778 2.84785C18.6545 2.68312 18.0196 2.48785 16.8491 2.43439ZM10.4673 15.9017C11.3233 16.258 12.2764 16.3061 13.1639 16.0377C14.0514 15.7694 14.8182 15.2012 15.3334 14.4303C15.8485 13.6594 16.0801 12.7335 15.9884 11.8109C15.8968 10.8882 15.4876 10.026 14.8309 9.37148C14.4123 8.95309 13.906 8.63273 13.3487 8.43346C12.7914 8.23419 12.1968 8.16097 11.6078 8.21906C11.0188 8.27716 10.45 8.46513 9.94233 8.76944C9.43468 9.07376 9.00081 9.48684 8.67197 9.97896C8.34312 10.4711 8.12748 11.03 8.04056 11.6154C7.95365 12.2009 7.99762 12.7983 8.16932 13.3648C8.34101 13.9312 8.63616 14.4525 9.03351 14.8912C9.43087 15.3298 9.92054 15.675 10.4673 15.9017ZM7.63855 7.84094C8.2113 7.26818 8.89126 6.81385 9.6396 6.50388C10.3879 6.19391 11.19 6.03436 12 6.03436C12.81 6.03436 13.6121 6.1939 14.3604 6.50388C15.1087 6.81385 15.7887 7.26818 16.3615 7.84094C16.9342 8.41369 17.3885 9.09365 17.6985 9.84199C18.0085 10.5903 18.168 11.3924 18.168 12.2024C18.168 13.0124 18.0085 13.8145 17.6985 14.5628C17.3885 15.3111 16.9342 15.9911 16.3615 16.5638C15.2047 17.7206 13.6359 18.3704 12 18.3704C10.3641 18.3704 8.79528 17.7206 7.63855 16.5638C6.48182 15.4071 5.83197 13.8383 5.83197 12.2024C5.83197 10.5665 6.48182 8.99767 7.63855 7.84094ZM19.536 6.95294C19.6779 6.81905 19.7916 6.65804 19.8701 6.47946C19.9487 6.30087 19.9907 6.10832 19.9935 5.91323C19.9964 5.71813 19.9601 5.52444 19.8867 5.34364C19.8134 5.16284 19.7045 4.99859 19.5665 4.86062C19.4285 4.72265 19.2643 4.61376 19.0835 4.54041C18.9027 4.46706 18.709 4.43073 18.5139 4.43357C18.3188 4.43642 18.1263 4.47838 17.9477 4.55697C17.7691 4.63556 17.6081 4.74919 17.4742 4.89112C17.2138 5.16715 17.0712 5.5338 17.0768 5.91323C17.0823 6.29265 17.2355 6.65499 17.5038 6.92331C17.7721 7.19164 18.1345 7.34482 18.5139 7.35036C18.8933 7.35589 19.26 7.21333 19.536 6.95294Z" fill="#735DFE"/>
</svg>
