<svg width="55" height="55" viewBox="0 0 55 55" fill="none" xmlns="http://www.w3.org/2000/svg">
<path d="M54.1193 13.6501C54.3985 13.3715 54.6199 13.0405 54.7711 12.6762C54.9222 12.3119 55 11.9213 55 11.5269C55 11.1325 54.9222 10.7419 54.7711 10.3776C54.6199 10.0133 54.3985 9.68231 54.1193 9.40369L45.5963 0.880737C45.3177 0.601547 44.9867 0.380048 44.6224 0.228919C44.2581 0.0777907 43.8675 0 43.4731 0C43.0787 0 42.6881 0.0777907 42.3238 0.228919C41.9594 0.380048 41.6285 0.601547 41.3499 0.880737L27.8276 14.403L16.1123 2.68773C13.7632 0.338642 9.93843 0.338642 7.58935 2.68773L1.86722 8.40985C-0.481864 10.7589 -0.481864 14.5837 1.86722 16.9328L13.5825 28.6481L0 42.2306V55H12.7694L26.382 41.3874L38.0973 53.1027C40.9584 55.9637 44.8133 54.9097 46.6203 53.1027L52.3424 47.3805C54.6915 45.0315 54.6915 41.2067 52.3424 38.8576L40.6271 27.1423L54.1193 13.6501ZM6.14376 12.6563L11.8358 6.93414L15.6606 10.7589L12.1068 14.3428L16.3532 18.5892L19.9371 15.0054L23.5511 18.6193L17.8289 24.3414L6.14376 12.6563ZM39.9645 35.0629L36.3807 38.6468L40.6271 42.8932L44.211 39.3093L48.0357 43.1341L42.3136 48.8562L30.5983 37.1409L36.3204 31.4188L39.9645 35.0629ZM10.2697 48.9767H6.02329V44.7303L34.9652 15.7884L38.8803 19.7035L39.2116 20.0348L10.2697 48.9767ZM39.2116 11.5118L43.458 7.26543L47.7045 11.5118L43.458 15.7583L39.2116 11.5118Z" fill="#735DFE"/>
</svg>
